<svg xmlns="http://www.w3.org/2000/svg" viewBox="0 0 64 64" role="img" aria-label="Unilog Express">
  <g fill="none" fill-rule="evenodd">
    <path d="M8 31c4-12 15-20 29-22 8-1 15 0 20 2-9 1-17 4-24 9-6 4-11 9-14 15-5-1-9-2-11-4z" fill="#494A56"/>
    <path d="M10 34c4 9 14 15 27 17 8 1 15 0 20-2-9-1-17-4-24-8-6-4-11-8-14-13-4 1-7 3-9 6z" fill="#ACCFCB"/>
    <rect x="29" y="42" width="5" height="4" rx="1" fill="#DB0812"/>
    <rect x="36" y="42" width="5" height="4" rx="1" fill="#DB0812"/>
    <rect x="43" y="42" width="5" height="4" rx="1" fill="#DB0812"/>
    <rect x="50" y="42" width="5" height="4" rx="1" fill="#DB0812"/>
    <text x="21" y="35" font-family="Arial, Helvetica, sans-serif" font-size="11" font-weight="700" fill="#494A56">UNILOG</text>
  </g>
</svg>